<?xml version="1.0" encoding="utf-8"?>
<!-- Generator: Adobe Illustrator 19.2.1, SVG Export Plug-In . SVG Version: 6.00 Build 0)  -->
<svg version="1.1" id="Layer_1" xmlns="http://www.w3.org/2000/svg" xmlns:xlink="http://www.w3.org/1999/xlink" x="0px" y="0px"
	 viewBox="0 0 20 20" style="enable-background:new 0 0 20 20;" xml:space="preserve">
<g>
	<path d="M1.9,13h5.2C7.6,13,8,12.6,8,12.1V7.9C8,7.4,7.6,7,7.1,7H1.9C1.4,7,1,7.4,1,7.9v4.3C1,12.6,1.4,13,1.9,13z"/>
	<path d="M18.1,7C18,7,18,7,18.1,7l-6.6,0c0,0,0,0,0,0c-0.5,0-0.9,0.5-0.9,1s0.4,1,0.9,1c0,0,0,0,0,0H18c0,0,0,0,0,0
		C18.6,9,19,8.5,19,8S18.6,7,18.1,7z"/>
	<path d="M18.1,11C18,11,18,11,18.1,11l-6.6,0c0,0,0,0,0,0c-0.5,0-0.9,0.5-0.9,1s0.4,1,0.9,1c0,0,0,0,0,0H18c0,0,0,0,0,0
		c0.5,0,0.9-0.5,0.9-1S18.6,11,18.1,11z"/>
	<path d="M1.9,5C2,5,2,5,1.9,5L18,5c0,0,0,0,0,0C18.6,5,19,4.5,19,4s-0.4-1-0.9-1c0,0,0,0,0,0H2c0,0,0,0,0,0C1.4,3,1,3.5,1,4
		S1.4,5,1.9,5z"/>
	<path d="M18.1,15C18,15,18,15,18.1,15L2,15c0,0,0,0,0,0C1.4,15,1,15.5,1,16s0.4,1,0.9,1c0,0,0,0,0,0H18c0,0,0,0,0,0
		c0.5,0,0.9-0.5,0.9-1S18.6,15,18.1,15z"/>
</g>
</svg>
