<?xml version="1.0" encoding="utf-8"?>
<!-- Generator: Adobe Illustrator 19.2.1, SVG Export Plug-In . SVG Version: 6.00 Build 0)  -->
<svg version="1.1" id="Layer_1" xmlns="http://www.w3.org/2000/svg" xmlns:xlink="http://www.w3.org/1999/xlink" x="0px" y="0px"
	 viewBox="0 0 20 20" style="enable-background:new 0 0 20 20;" xml:space="preserve">
<g>
	<path d="M12.9,13h5.2c0.5,0,0.9-0.4,0.9-0.9V7.9C19,7.4,18.6,7,18.1,7h-5.2C12.4,7,12,7.4,12,7.9v4.3C12,12.6,12.4,13,12.9,13z"/>
	<path d="M8.6,7C8.5,7,8.5,7,8.6,7L2,7c0,0,0,0,0,0C1.4,7,1,7.5,1,8s0.4,1,0.9,1c0,0,0,0,0,0h6.6c0,0,0,0,0,0c0.5,0,0.9-0.5,0.9-1
		S9.1,7,8.6,7z"/>
	<path d="M8.6,11C8.5,11,8.5,11,8.6,11L2,11c0,0,0,0,0,0C1.4,11,1,11.5,1,12s0.4,1,0.9,1c0,0,0,0,0,0h6.6c0,0,0,0,0,0
		c0.5,0,0.9-0.5,0.9-1S9.1,11,8.6,11z"/>
	<path d="M1.9,5C2,5,2,5,1.9,5L18,5c0,0,0,0,0,0C18.6,5,19,4.5,19,4s-0.4-1-0.9-1c0,0,0,0,0,0H2c0,0,0,0,0,0C1.4,3,1,3.5,1,4
		S1.4,5,1.9,5z"/>
	<path d="M18.1,15C18,15,18,15,18.1,15L2,15c0,0,0,0,0,0C1.4,15,1,15.5,1,16s0.4,1,0.9,1c0,0,0,0,0,0H18c0,0,0,0,0,0
		c0.5,0,0.9-0.5,0.9-1S18.6,15,18.1,15z"/>
</g>
</svg>
