<?xml version="1.0" encoding="utf-8"?>
<!-- Generator: Adobe Illustrator 19.2.1, SVG Export Plug-In . SVG Version: 6.00 Build 0)  -->
<svg version="1.1"
	 id="remove-table" inkscape:version="0.48.3.1 r9886" sodipodi:docname="table_font_awesome.svg" xmlns:cc="http://creativecommons.org/ns#" xmlns:dc="http://purl.org/dc/elements/1.1/" xmlns:inkscape="http://www.inkscape.org/namespaces/inkscape" xmlns:rdf="http://www.w3.org/1999/02/22-rdf-syntax-ns#" xmlns:sodipodi="http://sodipodi.sourceforge.net/DTD/sodipodi-0.dtd" xmlns:svg="http://www.w3.org/2000/svg"
	 xmlns="http://www.w3.org/2000/svg" xmlns:xlink="http://www.w3.org/1999/xlink" x="0px" y="0px" viewBox="0 0 64 64"
	 style="enable-background:new 0 0 64 64;" xml:space="preserve">
<g>
	<path d="M26.2,52.5c-0.3,0-0.6-0.1-0.8-0.3c-0.2-0.2-0.3-0.5-0.3-0.8v-6.8c0-0.3,0.1-0.6,0.3-0.8c0.2-0.2,0.5-0.3,0.8-0.3h9.2
		c1.6-3.6,4.5-6.4,8-8v-4.4c0-0.3,0.1-0.6,0.3-0.8s0.5-0.3,0.8-0.3H56c0.3,0,0.6,0.1,0.8,0.3s0.3,0.5,0.3,0.8v4.6
		c1.7,0.9,3.3,2,4.6,3.4V12.7c0-1.6-0.6-2.9-1.7-4C59.2,7.6,57.8,7,56.2,7H7.8c-1.6,0-3,0.6-4.1,1.7C2.6,9.8,2,11.1,2,12.7v38.6
		c0,1.6,0.6,2.9,1.7,4C4.8,56.4,6.2,57,7.8,57h27.8c-0.7-1.4-1.2-2.9-1.4-4.5H26.2z M43.8,16.4c0.2-0.2,0.5-0.3,0.8-0.3h11.5
		c0.3,0,0.6,0.1,0.8,0.3c0.2,0.2,0.3,0.5,0.3,0.8V24c0,0.3-0.1,0.6-0.3,0.8c-0.2,0.2-0.5,0.3-0.8,0.3H44.7c-0.3,0-0.6-0.1-0.8-0.3
		c-0.2-0.2-0.3-0.5-0.3-0.8v-6.8h-0.1C43.5,16.9,43.6,16.6,43.8,16.4z M25.1,17.2c0-0.3,0.1-0.6,0.3-0.8c0.2-0.2,0.5-0.3,0.8-0.3
		h11.5c0.3,0,0.6,0.1,0.8,0.3c0.2,0.2,0.3,0.5,0.3,0.8V24c0,0.3-0.1,0.6-0.3,0.8s-0.5,0.3-0.8,0.3H26.2c-0.3,0-0.6-0.1-0.8-0.3
		c-0.2-0.2-0.3-0.5-0.3-0.8V17.2z M25.1,30.9c0-0.3,0.1-0.6,0.3-0.8c0.2-0.2,0.5-0.3,0.8-0.3h11.5c0.3,0,0.6,0.1,0.8,0.3
		c0.2,0.2,0.3,0.5,0.3,0.8v6.8c0,0.3-0.1,0.6-0.3,0.8s-0.5,0.3-0.8,0.3H26.2c-0.3,0-0.6-0.1-0.8-0.3c-0.2-0.2-0.3-0.5-0.3-0.8V30.9z
		 M20.2,52.1c-0.2,0.2-0.5,0.3-0.8,0.3H7.8c-0.3,0-0.6-0.1-0.8-0.3c-0.2-0.2-0.3-0.5-0.3-0.8v-6.8c0-0.3,0.1-0.6,0.3-0.8
		s0.5-0.3,0.8-0.3h11.5c0.3,0,0.6,0.1,0.8,0.3c0.2,0.2,0.3,0.5,0.3,0.8v6.8h0.1C20.5,51.6,20.4,51.9,20.2,52.1z M20.2,38.5
		c-0.2,0.2-0.5,0.3-0.8,0.3H7.8c-0.3,0-0.6-0.1-0.8-0.3S6.7,38,6.7,37.7v-6.8c0-0.3,0.1-0.6,0.3-0.8c0.2-0.2,0.5-0.3,0.8-0.3h11.5
		c0.3,0,0.6,0.1,0.8,0.3c0.2,0.2,0.3,0.5,0.3,0.8v6.8h0.1C20.5,38,20.4,38.3,20.2,38.5z M20.2,24.8c-0.2,0.2-0.5,0.3-0.8,0.3H7.8
		c-0.3,0-0.6-0.1-0.8-0.3S6.7,24.3,6.7,24v-6.8c0-0.3,0.1-0.6,0.3-0.8c0.2-0.2,0.5-0.3,0.8-0.3h11.5c0.3,0,0.6,0.1,0.8,0.3
		c0.2,0.2,0.3,0.5,0.3,0.8V24h0.1C20.5,24.3,20.4,24.6,20.2,24.8z"/>
	<path d="M60.4,44c-1.1-1.9-2.6-3.3-4.4-4.4S52.2,38,50,38s-4.1,0.5-6,1.6c-1.9,1.1-3.3,2.6-4.4,4.4c-1.1,1.8-1.6,3.8-1.6,6
		s0.5,4.1,1.6,6c1.1,1.9,2.6,3.3,4.4,4.4s3.8,1.6,6,1.6s4.1-0.5,6-1.6c1.9-1.1,3.3-2.6,4.4-4.4c1.1-1.8,1.6-3.8,1.6-6
		S61.5,45.9,60.4,44z M57,51c0,0.2-0.1,0.5-0.3,0.7S56.3,52,56,52H44c-0.3,0-0.5-0.1-0.7-0.3C43.1,51.5,43,51.3,43,51v-2
		c0-0.3,0.1-0.5,0.3-0.7c0.2-0.2,0.4-0.3,0.7-0.3h12c0.3,0,0.5,0.1,0.7,0.3S57,48.7,57,49V51z"/>
</g>
</svg>
